<?xml version="1.0" standalone="no"?>
<!DOCTYPE svg PUBLIC "-//W3C//DTD SVG 20010904//EN"
 "http://www.w3.org/TR/2001/REC-SVG-20010904/DTD/svg10.dtd">
<svg version="1.0" xmlns="http://www.w3.org/2000/svg"
 width="483.000000pt" height="221.000000pt" viewBox="0 0 483.000000 221.000000"
 preserveAspectRatio="xMidYMid meet">

<g transform="translate(0.000000,221.000000) scale(0.100000,-0.100000)"
fill="#000000" stroke="none">
<path d="M30 1100 l0 -1070 455 0 455 0 0 1070 0 1070 -455 0 -455 0 0 -1070z
m750 570 l0 -140 -335 0 -335 0 0 135 0 135 65 0 65 0 0 -65 0 -65 65 0 65 0
0 60 0 60 65 0 65 0 0 -60 0 -60 75 0 75 0 0 70 0 70 65 0 65 0 0 -140z m-72
-213 c59 -32 72 -67 72 -194 l0 -113 -335 0 -335 0 0 105 c0 148 23 194 106
214 21 5 133 9 249 8 180 -2 215 -5 243 -20z m0 -387 c48 -27 82 -86 82 -141
0 -54 -39 -120 -85 -143 -37 -19 -58 -21 -265 -21 -208 0 -228 2 -260 20 -50
30 -72 74 -72 144 0 97 38 145 131 161 25 5 132 8 236 6 179 -2 193 -4 233
-26z m-328 -410 l0 -69 -72 -3 c-62 -3 -73 -6 -76 -22 -2 -10 2 -22 10 -27 15
-10 378 -12 402 -3 9 3 16 14 16 24 0 24 -19 30 -101 30 l-69 0 0 71 0 71 100
-4 c80 -3 105 -8 127 -24 45 -34 64 -67 69 -125 4 -44 1 -62 -18 -98 -38 -73
-72 -85 -263 -89 -315 -8 -397 27 -396 166 0 122 58 171 204 172 l67 0 0 -70z"/>
<path d="M242 1328 c-7 -7 -12 -20 -12 -30 0 -17 15 -18 216 -18 l215 0 -3 28
-3 27 -200 3 c-148 2 -204 -1 -213 -10z"/>
<path d="M245 946 c-11 -8 -16 -19 -12 -30 6 -15 28 -16 214 -14 203 3 208 3
211 24 4 30 -17 34 -219 34 -132 0 -180 -3 -194 -14z"/>
<path d="M4222 1971 c-66 -23 -117 -63 -160 -125 -47 -71 -65 -143 -66 -266
-1 -182 30 -236 264 -475 90 -91 167 -179 181 -205 32 -63 40 -224 13 -257
-34 -39 -97 -34 -124 9 -17 28 -20 51 -20 161 l0 127 -160 0 -160 0 0 -99 c0
-216 33 -336 114 -417 68 -68 138 -94 272 -101 230 -13 354 79 400 295 19 90
18 272 -1 347 -31 119 -66 168 -255 355 -102 101 -186 193 -199 217 -44 87
-17 158 59 158 53 0 70 -22 70 -89 0 -102 -10 -96 173 -96 l160 0 -6 88 c-6
107 -37 207 -80 264 -40 52 -122 103 -189 117 -79 17 -225 13 -286 -8z"/>
<path d="M1100 1155 l0 -825 335 0 335 0 0 160 0 160 -170 0 -170 0 0 190 0
190 155 0 155 0 0 155 0 155 -155 0 -155 0 0 165 0 165 160 0 160 0 0 155 0
155 -325 0 -325 0 0 -825z"/>
<path d="M1890 1155 l0 -825 330 0 330 0 0 140 0 140 -170 0 -170 0 0 685 0
685 -160 0 -160 0 0 -825z"/>
<path d="M2640 1155 l0 -825 155 0 155 0 0 825 0 825 -155 0 -155 0 0 -825z"/>
<path d="M3205 1948 c-5 -32 -155 -1584 -155 -1607 0 -8 46 -11 154 -11 l154
0 6 48 c3 26 8 86 11 135 l7 87 103 0 102 0 6 -62 c3 -35 9 -96 13 -135 l7
-73 153 0 153 0 -5 32 c-4 27 -154 1601 -154 1614 0 2 -124 4 -275 4 l-274 0
-6 -32z m285 -242 c0 -3 16 -184 35 -403 19 -219 35 -408 35 -420 0 -22 -4
-23 -75 -23 l-75 0 0 33 c0 45 50 745 56 785 3 17 9 32 14 32 6 0 10 -2 10 -4z"/>
</g>
</svg>
